<svg width="832" height="158" viewBox="0 0 832 158" fill="none" xmlns="http://www.w3.org/2000/svg">
<path d="M150.458 154H143.458L115.058 96.8H35.4578L7.65781 154H0.657813L75.4578 0.399999L150.458 154ZM112.658 91L75.0578 14.8L38.2578 91H112.658ZM172.553 3.99999H179.153C194.886 3.99999 207.153 8.19999 215.953 16.6C224.753 24.8667 229.153 36 229.153 50C229.153 59.7333 227.02 68.4 222.753 76C218.486 83.4667 212.686 89.2667 205.353 93.4C198.02 97.4 189.82 99.4 180.753 99.4H179.153V154H172.553V3.99999ZM181.153 93.6C193.286 93.6 203.22 89.8667 210.953 82.4C218.686 74.8 222.553 64.1333 222.553 50.4C222.553 37.3333 218.886 27.3333 211.553 20.4C204.353 13.3333 194.086 9.8 180.753 9.8H179.153V93.6H181.153ZM323.65 158C309.65 158 296.65 154.333 284.65 147C272.65 139.667 263.117 129.933 256.05 117.8C249.117 105.533 245.65 92.4 245.65 78.4C245.65 64.5333 249.183 51.6 256.25 39.6C263.317 27.4667 272.85 17.8667 284.85 10.8C296.85 3.59999 309.85 -8.10623e-06 323.85 -8.10623e-06C337.983 -8.10623e-06 350.983 3.53333 362.85 10.6C374.717 17.6667 384.117 27.2667 391.05 39.4C398.117 51.4 401.65 64.4 401.65 78.4C401.65 92.8 398.117 106.133 391.05 118.4C384.117 130.533 374.65 140.2 362.65 147.4C350.783 154.467 337.783 158 323.65 158ZM323.65 152.2C336.45 152.2 348.317 148.933 359.25 142.4C370.183 135.733 378.85 126.8 385.25 115.6C391.783 104.267 395.05 92 395.05 78.8C395.05 65.7333 391.85 53.6 385.45 42.4C379.05 31.2 370.383 22.3333 359.45 15.8C348.517 9.13332 336.65 5.79999 323.85 5.79999C310.917 5.79999 298.983 9.13332 288.05 15.8C277.117 22.3333 268.383 31.2 261.85 42.4C255.45 53.6 252.25 65.7333 252.25 78.8C252.25 92 255.45 104.267 261.85 115.6C268.383 126.8 277.117 135.733 288.05 142.4C298.983 148.933 310.85 152.2 323.65 152.2ZM458.255 156.8C441.588 156.8 428.655 149.933 419.455 136.2V125.4C423.055 133.4 428.255 139.667 435.055 144.2C441.988 148.733 450.255 151 459.855 151C466.521 151 472.655 149.533 478.255 146.6C483.988 143.667 488.521 139.533 491.855 134.2C495.188 128.867 496.855 122.733 496.855 115.8C496.855 109.533 495.788 104.133 493.655 99.6C491.521 95.0667 487.988 90.7333 483.055 86.6C478.121 82.3333 470.988 77.3333 461.655 71.6L455.255 67.6C449.388 64 444.655 60.8 441.055 58C437.455 55.2 434.321 51.9333 431.655 48.2C428.188 43 426.455 37 426.455 30.2C426.455 21.1333 429.388 14.0667 435.255 9C441.121 3.93333 448.588 1.4 457.655 1.4C469.921 1.4 479.655 5.93333 486.855 15V25.2C483.788 19.6 479.588 15.2 474.255 12C468.921 8.79999 463.055 7.19999 456.655 7.19999C449.988 7.19999 444.388 9.26666 439.855 13.4C435.321 17.5333 433.055 23.0667 433.055 30C433.055 36.8 435.121 42.6667 439.255 47.6C443.521 52.4 450.655 57.6667 460.655 63.4C472.921 70.6 482.455 77.1333 489.255 83C494.055 87.4 497.521 92.2667 499.655 97.6C501.921 102.933 503.055 108.867 503.055 115.4C503.055 123.667 501.121 130.933 497.255 137.2C493.388 143.467 488.055 148.333 481.255 151.8C474.455 155.133 466.788 156.8 458.255 156.8ZM538.331 9.8H503.731V3.99999H579.131V9.8H544.931V154H538.331V9.8ZM599.12 3.99999H607.72C623.32 3.99999 635.32 8.13332 643.72 16.4C652.254 24.6667 656.52 36.4667 656.52 51.8C656.52 60.6 654.387 68.6667 650.12 76C645.987 83.3333 640.32 89.1333 633.12 93.4C625.92 97.5333 617.987 99.6 609.32 99.6H607.92L659.52 154H650.92L605.52 106.4V154H599.12V3.99999ZM609.12 93.8C616.72 93.8 623.654 91.9333 629.92 88.2C636.187 84.4667 641.12 79.4667 644.72 73.2C648.32 66.8 650.12 59.7333 650.12 52C650.12 38.5333 646.454 28.1333 639.12 20.8C631.92 13.4667 621.587 9.8 608.12 9.8H605.52V93.8H609.12ZM753.338 158C739.338 158 726.338 154.333 714.338 147C702.338 139.667 692.804 129.933 685.738 117.8C678.804 105.533 675.338 92.4 675.338 78.4C675.338 64.5333 678.871 51.6 685.938 39.6C693.004 27.4667 702.538 17.8667 714.538 10.8C726.538 3.59999 739.538 -8.10623e-06 753.538 -8.10623e-06C767.671 -8.10623e-06 780.671 3.53333 792.538 10.6C804.404 17.6667 813.804 27.2667 820.738 39.4C827.804 51.4 831.338 64.4 831.338 78.4C831.338 92.8 827.804 106.133 820.738 118.4C813.804 130.533 804.338 140.2 792.338 147.4C780.471 154.467 767.471 158 753.338 158ZM753.338 152.2C766.138 152.2 778.004 148.933 788.938 142.4C799.871 135.733 808.538 126.8 814.938 115.6C821.471 104.267 824.738 92 824.738 78.8C824.738 65.7333 821.538 53.6 815.138 42.4C808.738 31.2 800.071 22.3333 789.138 15.8C778.204 9.13332 766.338 5.79999 753.538 5.79999C740.604 5.79999 728.671 9.13332 717.738 15.8C706.804 22.3333 698.071 31.2 691.538 42.4C685.138 53.6 681.938 65.7333 681.938 78.8C681.938 92 685.138 104.267 691.538 115.6C698.071 126.8 706.804 135.733 717.738 142.4C728.671 148.933 740.538 152.2 753.338 152.2Z" fill="white"/>
</svg>
