<svg width="866" height="156" viewBox="0 0 866 156" fill="none" xmlns="http://www.w3.org/2000/svg">
<path d="M95.6398 2.99999V153H89.2398V131.2C85.2398 138.533 79.4398 144.4 71.8398 148.8C64.2398 153.067 56.4398 155.2 48.4398 155.2C35.2398 155.2 23.9732 150.6 14.6398 141.4C5.43984 132.067 0.839844 120.933 0.839844 108C0.839844 95.0667 5.43984 84 14.6398 74.8C23.9732 65.4667 35.2398 60.8 48.4398 60.8C56.7065 60.8 64.6398 63 72.2398 67.4C79.9732 71.8 85.6398 77.6667 89.2398 85V2.99999H95.6398ZM7.23984 108.2C7.23984 119.4 11.2398 129.133 19.2398 137.4C27.2398 145.533 36.8398 149.6 48.0398 149.6C59.3732 149.6 69.1065 145.533 77.2398 137.4C85.5065 129.133 89.6399 119.4 89.6399 108.2C89.6399 97 85.5065 87.2667 77.2398 79C69.1065 70.6 59.4398 66.4 48.2398 66.4C37.0398 66.4 27.3732 70.5333 19.2398 78.8C11.2398 87.0667 7.23984 96.8667 7.23984 108.2ZM128.707 63.2V153H122.307V63.2H128.707ZM125.507 41.2C121.64 41.2 119.707 39.4 119.707 35.8C119.707 32.2 121.64 30.4 125.507 30.4C129.374 30.4 131.307 32.2 131.307 35.8C131.307 39.4 129.374 41.2 125.507 41.2ZM245.054 2.99999V153H238.654V131.2C234.654 138.533 228.854 144.4 221.254 148.8C213.654 153.067 205.854 155.2 197.854 155.2C184.654 155.2 173.387 150.6 164.054 141.4C154.854 132.067 150.254 120.933 150.254 108C150.254 95.0667 154.854 84 164.054 74.8C173.387 65.4667 184.654 60.8 197.854 60.8C206.121 60.8 214.054 63 221.654 67.4C229.387 71.8 235.054 77.6667 238.654 85V2.99999H245.054ZM156.654 108.2C156.654 119.4 160.654 129.133 168.654 137.4C176.654 145.533 186.254 149.6 197.454 149.6C208.787 149.6 218.521 145.533 226.654 137.4C234.921 129.133 239.054 119.4 239.054 108.2C239.054 97 234.921 87.2667 226.654 79C218.521 70.6 208.854 66.4 197.654 66.4C186.454 66.4 176.787 70.5333 168.654 78.8C160.654 87.0667 156.654 96.8667 156.654 108.2ZM344.121 155.6H341.121C320.454 155.6 302.588 147.867 287.521 132.4C272.588 116.933 265.121 98.8 265.121 78C265.121 57.0667 272.721 39 287.921 23.8C303.121 8.46666 321.388 0.799993 342.721 0.799993C364.054 0.799993 382.321 8.39999 397.521 23.6C412.721 38.8 420.321 57.0667 420.321 78.4C420.321 91.8667 416.921 104.533 410.121 116.4C403.321 128.267 393.988 137.8 382.121 145C370.388 152.067 357.721 155.6 344.121 155.6ZM413.721 78.4C413.721 58.6667 406.721 41.8 392.721 27.8C378.854 13.6667 362.121 6.59999 342.521 6.59999C323.054 6.59999 306.388 13.6667 292.521 27.8C278.654 41.8 271.721 58.6667 271.721 78.4C271.721 98 278.654 114.8 292.521 128.8C306.388 142.8 323.054 149.8 342.521 149.8C362.121 149.8 378.854 142.8 392.721 128.8C406.721 114.8 413.721 98 413.721 78.4ZM485.41 155.4H483.61C470.943 155.4 459.877 150.667 450.41 141.2C441.077 131.6 436.41 120.467 436.41 107.8C436.41 95.1333 441.077 84.2 450.41 75C459.743 65.6667 471.277 61 485.01 61C498.743 61 510.543 66.4667 520.41 77.4L457.61 139.4C466.277 146.333 474.61 149.8 482.61 149.8C490.61 149.8 497.743 148 504.01 144.4C510.41 140.667 515.677 135.733 519.81 129.6V139.8C510.343 150.2 498.877 155.4 485.41 155.4ZM483.21 66.6C472.677 66.6 463.277 70.7333 455.01 79C446.877 87.1333 442.81 96.5333 442.81 107.2C442.81 117.867 446.343 127.2 453.41 135.2L511.61 77.4C503.343 70.2 493.877 66.6 483.21 66.6ZM559.034 66.2C555.567 66.2 552.5 67.3333 549.834 69.6C547.167 71.8667 545.834 74.6667 545.834 78C545.834 81.3333 547.3 84.4 550.234 87.2C553.3 90 556.9 92.6 561.034 95C565.3 97.2667 569.567 99.7333 573.834 102.4C578.1 105.067 581.7 108.467 584.634 112.6C587.7 116.733 589.234 121.467 589.234 126.8C589.234 134.667 586.234 141.4 580.234 147C574.367 152.467 567.234 155.2 558.834 155.2C553.5 155.2 548.5 154.067 543.834 151.8C539.3 149.4 535.967 146.267 533.834 142.4V132.8C538.9 144 547.034 149.6 558.234 149.6C565.167 149.6 570.967 147.467 575.634 143.2C580.434 138.933 582.834 134.2 582.834 129C582.834 123.667 581.3 119.2 578.234 115.6C575.3 112 571.7 108.933 567.434 106.4C563.167 103.867 558.9 101.4 554.634 99C550.5 96.4667 546.9 93.4667 543.834 90C540.9 86.4 539.434 82.2667 539.434 77.6C539.434 72.8 541.3 68.8 545.034 65.6C548.9 62.2667 553.834 60.6 559.834 60.6C565.834 60.6 570.967 62.9333 575.234 67.6V75.8C570.967 69.4 565.567 66.2 559.034 66.2ZM609.984 154.4C605.45 154.4 603.184 152.333 603.184 148.2C603.184 144.067 605.45 142 609.984 142C614.65 142 616.984 144.067 616.984 148.2C616.984 152.333 614.65 154.4 609.984 154.4ZM698.318 82C700.318 75.6 704.118 70.4667 709.718 66.6C715.451 62.7333 722.385 60.8 730.518 60.8C738.651 60.8 745.785 63.7333 751.918 69.6C758.051 75.4667 761.118 83.4 761.118 93.4V153H754.718V93.4C754.718 85.6667 752.185 79.2667 747.118 74.2C742.051 69 735.918 66.4 728.718 66.4C721.651 66.4 715.318 69.0667 709.718 74.4C704.251 79.7333 701.518 85.9333 701.518 93V153H695.118V93C695.118 85.8 692.585 79.6 687.518 74.4C682.451 69.0667 676.318 66.4 669.118 66.4C661.918 66.4 655.651 69.0667 650.318 74.4C644.985 79.7333 642.318 85.9333 642.318 93V153H635.918V63H642.318V75.6C644.985 71.6 648.918 68.1333 654.118 65.2C659.451 62.2667 664.918 60.8 670.518 60.8C676.251 60.8 681.718 62.8 686.918 66.8C692.118 70.6667 695.918 75.7333 698.318 82ZM830.137 155.4H828.337C815.67 155.4 804.603 150.667 795.137 141.2C785.803 131.6 781.137 120.467 781.137 107.8C781.137 95.1333 785.803 84.2 795.137 75C804.47 65.6667 816.003 61 829.737 61C843.47 61 855.27 66.4667 865.137 77.4L802.337 139.4C811.003 146.333 819.337 149.8 827.337 149.8C835.337 149.8 842.47 148 848.737 144.4C855.137 140.667 860.403 135.733 864.537 129.6V139.8C855.07 150.2 843.603 155.4 830.137 155.4ZM827.937 66.6C817.403 66.6 808.003 70.7333 799.737 79C791.603 87.1333 787.537 96.5333 787.537 107.2C787.537 117.867 791.07 127.2 798.137 135.2L856.337 77.4C848.07 70.2 838.603 66.6 827.937 66.6Z" fill="white"/>
</svg>
