<svg width="905" height="133" viewBox="0 0 905 133" fill="none" xmlns="http://www.w3.org/2000/svg">
<path d="M26.118 123.1L25.5445 123.919L25.5491 123.922L26.118 123.1ZM7.61797 99.9L6.70139 100.3L6.70238 100.302L7.61797 99.9ZM8.11797 30.2L7.22228 29.7553L7.21981 29.7603L8.11797 30.2ZM27.318 8.59999L27.8345 9.45623L27.8366 9.455L27.318 8.59999ZM87.018 11.3L86.3802 12.0703L86.3871 12.0759L87.018 11.3ZM103.918 37.4L104.116 38.3801L105.177 38.1655L104.879 37.1253L103.918 37.4ZM87.118 40.8L86.1693 41.1162L86.4491 41.9556L87.3163 41.7801L87.118 40.8ZM74.618 22.2L73.9822 22.972L73.9922 22.98L74.618 22.2ZM36.418 20.9L36.9773 21.729L36.9795 21.7275L36.418 20.9ZM23.018 37.7L23.9281 38.1144L23.9281 38.1144L23.018 37.7ZM21.918 92.1L20.9717 92.4235L20.9742 92.4307L21.918 92.1ZM34.118 110.5L33.4806 111.271L33.4852 111.274L34.118 110.5ZM78.318 109.2L77.6453 108.46L77.6411 108.464L78.318 109.2ZM87.118 88.2V87.2H86.118V88.2H87.118ZM104.118 88.2H105.118V87.2H104.118V88.2ZM97.918 111.4L98.758 111.943L98.7606 111.939L97.918 111.4ZM80.518 126.2L80.0969 125.293L80.0937 125.294L80.518 126.2ZM54.718 130.4C43.8256 130.4 34.4973 127.68 26.6868 122.278L25.5491 123.922C33.7386 129.587 43.477 132.4 54.718 132.4V130.4ZM26.6914 122.281C18.8568 116.797 12.8011 109.215 8.53356 99.4979L6.70238 100.302C11.1015 110.319 17.3792 118.203 25.5445 123.919L26.6914 122.281ZM8.53455 99.5001C4.26634 89.7161 2.11797 78.3568 2.11797 65.4H0.117969C0.117969 78.5765 2.30293 90.2172 6.70139 100.3L8.53455 99.5001ZM2.11797 65.4C2.11797 51.5733 4.43403 40.0002 9.01613 30.6397L7.21981 29.7603C2.46857 39.4664 0.117969 51.36 0.117969 65.4H2.11797ZM9.01365 30.6447C13.6736 21.2591 19.9513 14.2122 27.8345 9.45623L26.8014 7.74375C18.5513 12.7211 12.029 20.0743 7.22229 29.7553L9.01365 30.6447ZM27.8366 9.455C35.8033 4.62275 44.7551 2.19999 54.718 2.19999V0.199988C44.4142 0.199988 35.0993 2.71056 26.7994 7.74498L27.8366 9.455ZM54.718 2.19999C67.9492 2.19999 78.4701 5.5217 86.3803 12.0703L87.6557 10.5297C79.2992 3.61161 68.2867 0.199988 54.718 0.199988V2.19999ZM86.3871 12.0759C94.419 18.6058 99.9427 27.1266 102.956 37.6747L104.879 37.1253C101.76 26.2067 96.017 17.3275 87.6488 10.5241L86.3871 12.0759ZM103.72 36.4199L86.9196 39.8199L87.3163 41.7801L104.116 38.3801L103.72 36.4199ZM88.0667 40.4838C85.4133 32.5237 81.1444 26.1543 75.2438 21.42L73.9922 22.98C79.5582 27.4457 83.6226 33.4763 86.1693 41.1162L88.0667 40.4838ZM75.2537 21.4281C69.4012 16.6084 62.541 14.2 54.718 14.2V16.2C62.0949 16.2 68.5014 18.4583 73.9823 22.9719L75.2537 21.4281ZM54.718 14.2C47.9124 14.2 41.6177 16.1631 35.8565 20.0725L36.9795 21.7275C42.4183 18.0369 48.3235 16.2 54.718 16.2V14.2ZM35.8587 20.071C30.1408 23.9288 25.5668 29.6894 22.1079 37.2856L23.9281 38.1144C27.2691 30.7772 31.6284 25.3378 36.9773 21.729L35.8587 20.071ZM22.1079 37.2856C18.6321 44.9187 16.918 54.3032 16.918 65.4H18.918C18.918 54.4968 20.6039 45.4146 23.9281 38.1144L22.1079 37.2856ZM16.918 65.4C16.918 75.4874 18.2628 84.4999 20.9717 92.4235L22.8642 91.7765C20.2398 84.1001 18.918 75.3126 18.918 65.4H16.918ZM20.9742 92.4307C23.7569 100.371 27.9169 106.669 33.4806 111.271L34.7553 109.729C29.519 105.398 25.5458 99.4287 22.8617 91.7693L20.9742 92.4307ZM33.4852 111.274C39.1601 115.911 46.262 118.2 54.718 118.2V116.2C46.6406 116.2 40.0092 114.022 34.7507 109.726L33.4852 111.274ZM54.718 118.2C64.8341 118.2 72.9657 115.48 78.9948 109.936L77.6411 108.464C72.0702 113.587 64.4686 116.2 54.718 116.2V118.2ZM78.9906 109.94C85.0865 104.398 88.118 97.1191 88.118 88.2H86.118C86.118 96.6142 83.2827 103.335 77.6453 108.46L78.9906 109.94ZM87.118 89.2H104.118V87.2H87.118V89.2ZM103.118 88.2C103.118 97.0427 101.089 104.582 97.0754 110.861L98.7606 111.939C103.013 105.285 105.118 97.3573 105.118 88.2H103.118ZM97.0779 110.857C93.0553 117.086 87.4066 121.899 80.0969 125.293L80.9391 127.107C88.5626 123.567 94.514 118.514 98.758 111.943L97.0779 110.857ZM80.0937 125.294C72.8503 128.688 64.4001 130.4 54.718 130.4V132.4C64.6358 132.4 73.3856 130.646 80.9422 127.106L80.0937 125.294ZM166.274 124.2L165.769 125.063L166.274 124.2ZM146.874 102.6L145.976 103.04L145.977 103.042L146.874 102.6ZM146.874 30L147.771 30.4422L147.772 30.4398L146.874 30ZM166.274 8.39999L166.774 9.26608L166.779 9.26301L166.274 8.39999ZM241.474 30.1L240.576 30.5398L240.576 30.5398L241.474 30.1ZM241.474 102.8L242.371 103.242L242.372 103.24L241.474 102.8ZM222.074 124.3L222.574 125.166L222.574 125.166L222.074 124.3ZM222.074 104.1L221.293 103.476L221.29 103.48L222.074 104.1ZM222.074 28.5L221.281 29.1086L221.286 29.1152L222.074 28.5ZM166.274 28.5L165.486 27.884L165.484 27.8877L166.274 28.5ZM166.274 104.2L165.493 104.824L165.498 104.831L166.274 104.2ZM194.174 130.4C183.934 130.4 174.812 128.039 166.779 123.337L165.769 125.063C174.137 129.961 183.614 132.4 194.174 132.4V130.4ZM166.779 123.337C158.769 118.648 152.429 111.605 147.771 102.158L145.977 103.042C150.786 112.795 157.379 120.152 165.769 125.063L166.779 123.337ZM147.772 102.16C143.125 92.6692 140.774 80.7642 140.774 66.4H138.774C138.774 80.9692 141.157 93.1975 145.976 103.04L147.772 102.16ZM140.774 66.4C140.774 51.833 143.126 39.8635 147.771 30.4422L145.977 29.5578C141.156 39.3365 138.774 51.6337 138.774 66.4H140.774ZM147.772 30.4398C152.431 20.9264 158.769 13.8869 166.774 9.26606L165.774 7.53392C157.379 12.3798 150.785 19.7403 145.976 29.5602L147.772 30.4398ZM166.779 9.26301C174.812 4.56106 183.934 2.19999 194.174 2.19999V0.199988C183.614 0.199988 174.137 2.63892 165.769 7.53698L166.779 9.26301ZM194.174 2.19999C204.414 2.19999 213.537 4.56106 221.569 9.26301L222.579 7.53698C214.212 2.63892 204.735 0.199988 194.174 0.199988V2.19999ZM221.569 9.26301C229.577 13.9508 235.917 21.0255 240.576 30.5398L242.372 29.6602C237.564 19.8411 230.971 12.4491 222.579 7.53698L221.569 9.26301ZM240.576 30.5398C245.223 40.0303 247.574 51.9684 247.574 66.4H249.574C249.574 51.765 247.192 39.5031 242.372 29.6602L240.576 30.5398ZM247.574 66.4C247.574 80.8991 245.223 92.8703 240.576 102.36L242.372 103.24C247.192 93.3964 249.574 81.1009 249.574 66.4H247.574ZM240.577 102.358C235.92 111.804 229.581 118.812 221.574 123.434L222.574 125.166C230.967 120.321 237.562 112.996 242.371 103.242L240.577 102.358ZM221.574 123.434C213.541 128.071 204.416 130.4 194.174 130.4V132.4C204.732 132.4 214.207 129.996 222.574 125.166L221.574 123.434ZM194.174 118C206.253 118 215.853 113.58 222.859 104.72L221.29 103.48C214.696 111.82 205.695 116 194.174 116V118ZM222.856 104.724C229.92 95.8759 233.374 82.9821 233.374 66.2H231.374C231.374 82.7512 227.961 95.1241 221.293 103.476L222.856 104.724ZM233.374 66.2C233.374 49.7433 229.917 36.9256 222.863 27.8848L221.286 29.1152C227.965 37.6744 231.374 49.99 231.374 66.2H233.374ZM222.868 27.8914C215.866 18.7624 206.265 14.2 194.174 14.2V16.2C205.683 16.2 214.682 20.5043 221.281 29.1086L222.868 27.8914ZM194.174 14.2C182.213 14.2 172.617 18.7648 165.486 27.884L167.062 29.116C173.798 20.5018 182.802 16.2 194.174 16.2V14.2ZM165.484 27.8877C158.431 36.9943 154.974 49.8771 154.974 66.4H156.974C156.974 50.1229 160.384 37.739 167.065 29.1123L165.484 27.8877ZM154.974 66.4C154.974 83.1166 158.429 95.9765 165.493 104.824L167.056 103.576C160.387 95.2235 156.974 82.8834 156.974 66.4H154.974ZM165.498 104.831C172.634 113.614 182.228 118 194.174 118V116C182.788 116 173.781 111.853 167.05 103.569L165.498 104.831ZM294.676 3.4V2.4H293.676V3.4H294.676ZM313.276 3.4L314.127 2.87489L313.834 2.4H313.276V3.4ZM377.076 106.8V107.8H378.868L377.927 106.275L377.076 106.8ZM375.676 106.8H374.676V107.8H375.676V106.8ZM375.676 3.4V2.4H374.676V3.4H375.676ZM391.276 3.4H392.276V2.4H391.276V3.4ZM391.276 129V130H392.276V129H391.276ZM373.876 129L373.025 129.526L373.318 130H373.876V129ZM307.876 22.2V21.2H306.082L307.025 22.7257L307.876 22.2ZM310.276 22.2H311.276V21.2H310.276V22.2ZM310.276 129V130H311.276V129H310.276ZM294.676 129H293.676V130H294.676V129ZM294.676 4.4H313.276V2.4H294.676V4.4ZM312.425 3.9251L376.225 107.325L377.927 106.275L314.127 2.87489L312.425 3.9251ZM377.076 105.8H375.676V107.8H377.076V105.8ZM376.676 106.8V3.4H374.676V106.8H376.676ZM375.676 4.4H391.276V2.4H375.676V4.4ZM390.276 3.4V129H392.276V3.4H390.276ZM391.276 128H373.876V130H391.276V128ZM374.726 128.474L308.726 21.6743L307.025 22.7257L373.025 129.526L374.726 128.474ZM307.876 23.2H310.276V21.2H307.876V23.2ZM309.276 22.2V129H311.276V22.2H309.276ZM310.276 128H294.676V130H310.276V128ZM295.676 129V3.4H293.676V129H295.676ZM428.595 16.8H427.595V17.8H428.595V16.8ZM428.595 3.4V2.4H427.595V3.4H428.595ZM526.395 3.4H527.395V2.4H526.395V3.4ZM526.395 16.8V17.8H527.395V16.8H526.395ZM481.695 16.8L480.978 16.1029L479.328 17.8H481.695V16.8ZM485.195 13.2H486.195V10.7369L484.478 12.5029L485.195 13.2ZM485.195 129V130H486.195V129H485.195ZM469.595 129H468.595V130H469.595V129ZM469.595 13.2L470.312 12.5029L468.595 10.7369V13.2H469.595ZM473.095 16.8V17.8H475.461L473.812 16.1029L473.095 16.8ZM429.595 16.8V3.4H427.595V16.8H429.595ZM428.595 4.4H526.395V2.4H428.595V4.4ZM525.395 3.4V16.8H527.395V3.4H525.395ZM526.395 15.8H481.695V17.8H526.395V15.8ZM482.412 17.4971L485.912 13.8971L484.478 12.5029L480.978 16.1029L482.412 17.4971ZM484.195 13.2V129H486.195V13.2H484.195ZM485.195 128H469.595V130H485.195V128ZM470.595 129V13.2H468.595V129H470.595ZM468.878 13.8971L472.378 17.4971L473.812 16.1029L470.312 12.5029L468.878 13.8971ZM473.095 15.8H428.595V17.8H473.095V15.8ZM540.587 129L539.641 128.675L539.185 130H540.587V129ZM583.787 3.4V2.4H583.073L582.841 3.07475L583.787 3.4ZM602.787 3.4L603.735 3.0815L603.506 2.4H602.787V3.4ZM644.987 129V130H646.378L645.935 128.682L644.987 129ZM628.587 129L627.637 129.313L627.863 130H628.587V129ZM617.987 96.8L618.937 96.4873L618.71 95.8H617.987V96.8ZM567.987 96.8V95.8H567.272L567.04 96.4767L567.987 96.8ZM556.987 129V130H557.702L557.933 129.323L556.987 129ZM571.987 84.6L571.039 84.2801L570.594 85.6H571.987V84.6ZM613.987 84.6V85.6H615.38L614.934 84.2801L613.987 84.6ZM592.987 22.4L593.934 22.0801L592.987 19.2738L592.039 22.0801L592.987 22.4ZM541.532 129.325L584.732 3.72524L582.841 3.07475L539.641 128.675L541.532 129.325ZM583.787 4.4H602.787V2.4H583.787V4.4ZM601.839 3.71849L644.039 129.318L645.935 128.682L603.735 3.0815L601.839 3.71849ZM644.987 128H628.587V130H644.987V128ZM629.537 128.687L618.937 96.4873L617.037 97.1127L627.637 129.313L629.537 128.687ZM617.987 95.8H567.987V97.8H617.987V95.8ZM567.04 96.4767L556.04 128.677L557.933 129.323L568.933 97.1233L567.04 96.4767ZM556.987 128H540.587V130H556.987V128ZM571.987 85.6H613.987V83.6H571.987V85.6ZM614.934 84.2801L593.934 22.0801L592.039 22.7199L613.039 84.9199L614.934 84.2801ZM592.039 22.0801L571.039 84.2801L572.934 84.9199L593.934 22.7199L592.039 22.0801ZM701.43 123.1L700.857 123.919L700.862 123.922L701.43 123.1ZM682.93 99.9L682.014 100.3L682.015 100.302L682.93 99.9ZM683.43 30.2L682.535 29.7553L682.532 29.7603L683.43 30.2ZM702.63 8.59999L703.147 9.45623L703.149 9.455L702.63 8.59999ZM762.33 11.3L761.693 12.0703L761.7 12.0759L762.33 11.3ZM779.23 37.4L779.429 38.3801L780.489 38.1655L780.192 37.1253L779.23 37.4ZM762.43 40.8L761.482 41.1162L761.762 41.9556L762.629 41.7801L762.43 40.8ZM749.93 22.2L749.295 22.972L749.305 22.98L749.93 22.2ZM711.73 20.9L712.29 21.729L712.292 21.7275L711.73 20.9ZM698.33 37.7L699.241 38.1144L699.241 38.1144L698.33 37.7ZM697.23 92.1L696.284 92.4235L696.287 92.4307L697.23 92.1ZM709.43 110.5L708.793 111.271L708.798 111.274L709.43 110.5ZM753.63 109.2L752.958 108.46L752.954 108.464L753.63 109.2ZM762.43 88.2V87.2H761.43V88.2H762.43ZM779.43 88.2H780.43V87.2H779.43V88.2ZM773.23 111.4L774.071 111.943L774.073 111.939L773.23 111.4ZM755.83 126.2L755.409 125.293L755.406 125.294L755.83 126.2ZM730.03 130.4C719.138 130.4 709.81 127.68 701.999 122.278L700.862 123.922C709.051 129.587 718.79 132.4 730.03 132.4V130.4ZM702.004 122.281C694.169 116.797 688.114 109.215 683.846 99.4979L682.015 100.302C686.414 110.319 692.692 118.203 700.857 123.919L702.004 122.281ZM683.847 99.5001C679.579 89.7161 677.43 78.3568 677.43 65.4H675.43C675.43 78.5765 677.615 90.2172 682.014 100.3L683.847 99.5001ZM677.43 65.4C677.43 51.5733 679.747 40.0002 684.329 30.6397L682.532 29.7603C677.781 39.4664 675.43 51.36 675.43 65.4H677.43ZM684.326 30.6447C688.986 21.2591 695.264 14.2122 703.147 9.45623L702.114 7.74375C693.864 12.7211 687.341 20.0743 682.535 29.7553L684.326 30.6447ZM703.149 9.455C711.116 4.62275 720.068 2.19999 730.03 2.19999V0.199988C719.727 0.199988 710.412 2.71056 702.112 7.74498L703.149 9.455ZM730.03 2.19999C743.262 2.19999 753.783 5.5217 761.693 12.0703L762.968 10.5297C754.612 3.61161 743.599 0.199988 730.03 0.199988V2.19999ZM761.7 12.0759C769.731 18.6058 775.255 27.1266 778.269 37.6747L780.192 37.1253C777.072 26.2067 771.329 17.3275 762.961 10.5241L761.7 12.0759ZM779.032 36.4199L762.232 39.8199L762.629 41.7801L779.429 38.3801L779.032 36.4199ZM763.379 40.4838C760.726 32.5237 756.457 26.1543 750.556 21.42L749.305 22.98C754.871 27.4457 758.935 33.4763 761.482 41.1162L763.379 40.4838ZM750.566 21.4281C744.714 16.6084 737.854 14.2 730.03 14.2V16.2C737.407 16.2 743.814 18.4583 749.295 22.9719L750.566 21.4281ZM730.03 14.2C723.225 14.2 716.93 16.1631 711.169 20.0725L712.292 21.7275C717.731 18.0369 723.636 16.2 730.03 16.2V14.2ZM711.171 20.071C705.453 23.9288 700.879 29.6894 697.42 37.2856L699.241 38.1144C702.582 30.7772 706.941 25.3378 712.29 21.729L711.171 20.071ZM697.42 37.2856C693.945 44.9187 692.23 54.3032 692.23 65.4H694.23C694.23 54.4968 695.916 45.4146 699.241 38.1144L697.42 37.2856ZM692.23 65.4C692.23 75.4874 693.575 84.4999 696.284 92.4235L698.177 91.7765C695.552 84.1001 694.23 75.3126 694.23 65.4H692.23ZM696.287 92.4307C699.069 100.371 703.229 106.669 708.793 111.271L710.068 109.729C704.831 105.398 700.858 99.4287 698.174 91.7693L696.287 92.4307ZM708.798 111.274C714.473 115.911 721.574 118.2 730.03 118.2V116.2C721.953 116.2 715.322 114.022 710.063 109.726L708.798 111.274ZM730.03 118.2C740.147 118.2 748.278 115.48 754.307 109.936L752.954 108.464C747.383 113.587 739.781 116.2 730.03 116.2V118.2ZM754.303 109.94C760.399 104.398 763.43 97.1191 763.43 88.2H761.43C761.43 96.6142 758.595 103.335 752.958 108.46L754.303 109.94ZM762.43 89.2H779.43V87.2H762.43V89.2ZM778.43 88.2C778.43 97.0427 776.402 104.582 772.388 110.861L774.073 111.939C778.326 105.285 780.43 97.3573 780.43 88.2H778.43ZM772.39 110.857C768.368 117.086 762.719 121.899 755.409 125.293L756.252 127.107C763.875 123.567 769.826 118.514 774.071 111.943L772.39 110.857ZM755.406 125.294C748.163 128.688 739.713 130.4 730.03 130.4V132.4C739.948 132.4 748.698 130.646 756.255 127.106L755.406 125.294ZM806.087 16.8H805.087V17.8H806.087V16.8ZM806.087 3.4V2.4H805.087V3.4H806.087ZM903.887 3.4H904.887V2.4H903.887V3.4ZM903.887 16.8V17.8H904.887V16.8H903.887ZM859.187 16.8L858.47 16.1029L856.82 17.8H859.187V16.8ZM862.687 13.2H863.687V10.7369L861.97 12.5029L862.687 13.2ZM862.687 129V130H863.687V129H862.687ZM847.087 129H846.087V130H847.087V129ZM847.087 13.2L847.804 12.5029L846.087 10.7369V13.2H847.087ZM850.587 16.8V17.8H852.954L851.304 16.1029L850.587 16.8ZM807.087 16.8V3.4H805.087V16.8H807.087ZM806.087 4.4H903.887V2.4H806.087V4.4ZM902.887 3.4V16.8H904.887V3.4H902.887ZM903.887 15.8H859.187V17.8H903.887V15.8ZM859.904 17.4971L863.404 13.8971L861.97 12.5029L858.47 16.1029L859.904 17.4971ZM861.687 13.2V129H863.687V13.2H861.687ZM862.687 128H847.087V130H862.687V128ZM848.087 129V13.2H846.087V129H848.087ZM846.37 13.8971L849.87 17.4971L851.304 16.1029L847.804 12.5029L846.37 13.8971ZM850.587 15.8H806.087V17.8H850.587V15.8Z" fill="white"/>
</svg>
