<svg width="561" height="133" viewBox="0 0 561 133" fill="none" xmlns="http://www.w3.org/2000/svg">
<path d="M1.93438 3.4V2.4H0.934376V3.4H1.93438ZM17.5344 3.4H18.5344V2.4H17.5344V3.4ZM17.5344 58.8H16.5344V59.8H17.5344V58.8ZM79.7344 58.8V59.8H80.7344V58.8H79.7344ZM79.7344 3.4V2.4H78.7344V3.4H79.7344ZM95.1344 3.4H96.1344V2.4H95.1344V3.4ZM95.1344 129V130H96.1344V129H95.1344ZM79.7344 129H78.7344V130H79.7344V129ZM79.7344 72.2H80.7344V71.2H79.7344V72.2ZM17.5344 72.2V71.2H16.5344V72.2H17.5344ZM17.5344 129V130H18.5344V129H17.5344ZM1.93438 129H0.934376V130H1.93438V129ZM1.93438 4.4H17.5344V2.4H1.93438V4.4ZM16.5344 3.4V58.8H18.5344V3.4H16.5344ZM17.5344 59.8H79.7344V57.8H17.5344V59.8ZM80.7344 58.8V3.4H78.7344V58.8H80.7344ZM79.7344 4.4H95.1344V2.4H79.7344V4.4ZM94.1344 3.4V129H96.1344V3.4H94.1344ZM95.1344 128H79.7344V130H95.1344V128ZM80.7344 129V72.2H78.7344V129H80.7344ZM79.7344 71.2H17.5344V73.2H79.7344V71.2ZM16.5344 72.2V129H18.5344V72.2H16.5344ZM17.5344 128H1.93438V130H17.5344V128ZM2.93438 129V3.4H0.934376V129H2.93438ZM168.223 124.2L167.718 125.063L168.223 124.2ZM148.823 102.6L147.925 103.04L147.927 103.042L148.823 102.6ZM148.823 30L149.72 30.4422L149.722 30.4398L148.823 30ZM168.223 8.39999L168.723 9.26608L168.729 9.26301L168.223 8.39999ZM243.423 30.1L242.525 30.5398L242.525 30.5398L243.423 30.1ZM243.423 102.8L244.32 103.242L244.322 103.24L243.423 102.8ZM224.023 124.3L224.523 125.166L224.523 125.166L224.023 124.3ZM224.023 104.1L223.242 103.476L223.239 103.48L224.023 104.1ZM224.023 28.5L223.23 29.1086L223.235 29.1152L224.023 28.5ZM168.223 28.5L167.436 27.884L167.433 27.8877L168.223 28.5ZM168.223 104.2L167.442 104.824L167.447 104.831L168.223 104.2ZM196.123 130.4C185.884 130.4 176.761 128.039 168.729 123.337L167.718 125.063C176.086 129.961 185.563 132.4 196.123 132.4V130.4ZM168.729 123.337C160.718 118.648 154.378 111.605 149.72 102.158L147.927 103.042C152.735 112.795 159.329 120.152 167.718 125.063L168.729 123.337ZM149.722 102.16C145.074 92.6692 142.723 80.7642 142.723 66.4H140.723C140.723 80.9692 143.106 93.1975 147.925 103.04L149.722 102.16ZM142.723 66.4C142.723 51.833 145.075 39.8635 149.72 30.4422L147.927 29.5578C143.105 39.3365 140.723 51.6337 140.723 66.4H142.723ZM149.722 30.4398C154.38 20.9264 160.718 13.8869 168.723 9.26606L167.724 7.53392C159.329 12.3798 152.734 19.7403 147.925 29.5602L149.722 30.4398ZM168.729 9.26301C176.761 4.56106 185.884 2.19999 196.123 2.19999V0.199988C185.563 0.199988 176.086 2.63892 167.718 7.53698L168.729 9.26301ZM196.123 2.19999C206.363 2.19999 215.486 4.56106 223.518 9.26301L224.529 7.53698C216.161 2.63892 206.684 0.199988 196.123 0.199988V2.19999ZM223.518 9.26301C231.527 13.9508 237.867 21.0255 242.525 30.5398L244.322 29.6602C239.514 19.8411 232.92 12.4491 224.529 7.53698L223.518 9.26301ZM242.525 30.5398C247.172 40.0303 249.523 51.9684 249.523 66.4H251.523C251.523 51.765 249.141 39.5031 244.322 29.6602L242.525 30.5398ZM249.523 66.4C249.523 80.8991 247.172 92.8703 242.525 102.36L244.322 103.24C249.141 93.3964 251.523 81.1009 251.523 66.4H249.523ZM242.527 102.358C237.869 111.804 231.53 118.812 223.524 123.434L224.523 125.166C232.916 120.321 239.511 112.996 244.32 103.242L242.527 102.358ZM223.524 123.434C215.49 128.071 206.366 130.4 196.123 130.4V132.4C206.681 132.4 216.157 129.996 224.523 125.166L223.524 123.434ZM196.123 118C208.202 118 217.802 113.58 224.808 104.72L223.239 103.48C216.645 111.82 207.644 116 196.123 116V118ZM224.805 104.724C231.87 95.8759 235.323 82.9821 235.323 66.2H233.323C233.323 82.7512 229.911 95.1241 223.242 103.476L224.805 104.724ZM235.323 66.2C235.323 49.7433 231.866 36.9256 224.812 27.8848L223.235 29.1152C229.914 37.6744 233.323 49.99 233.323 66.2H235.323ZM224.817 27.8914C217.816 18.7624 208.214 14.2 196.123 14.2V16.2C207.633 16.2 216.631 20.5043 223.23 29.1086L224.817 27.8914ZM196.123 14.2C184.162 14.2 174.566 18.7648 167.436 27.884L169.011 29.116C175.747 20.5018 184.751 16.2 196.123 16.2V14.2ZM167.433 27.8877C160.38 36.9943 156.923 49.8771 156.923 66.4H158.923C158.923 50.1229 162.333 37.739 169.014 29.1123L167.433 27.8877ZM156.923 66.4C156.923 83.1166 160.378 95.9765 167.442 104.824L169.005 103.576C162.336 95.2235 158.923 82.8834 158.923 66.4H156.923ZM167.447 104.831C174.583 113.614 184.177 118 196.123 118V116C184.737 116 175.73 111.853 169 103.569L167.447 104.831ZM296.825 3.4V2.4H295.825V3.4H296.825ZM319.225 3.4L320.12 2.95443L319.844 2.4H319.225V3.4ZM362.425 90.2V91.2H364.04L363.32 89.7544L362.425 90.2ZM360.825 90.2L359.93 89.7544L359.21 91.2H360.825V90.2ZM404.025 3.4V2.4H403.406L403.13 2.95443L404.025 3.4ZM425.825 3.4H426.825V2.4H425.825V3.4ZM425.825 129V130H426.825V129H425.825ZM410.025 129H409.025V130H410.025V129ZM410.025 19.6V18.6H409.025V19.6H410.025ZM412.825 19.6L413.722 20.0411L414.431 18.6H412.825V19.6ZM366.825 113.2V114.2H367.448L367.722 113.641L366.825 113.2ZM356.425 113.2L355.528 113.642L355.803 114.2H356.425V113.2ZM310.625 20.2V19.2H309.018L309.728 20.6418L310.625 20.2ZM312.425 20.2H313.425V19.2H312.425V20.2ZM312.425 129V130H313.425V129H312.425ZM296.825 129H295.825V130H296.825V129ZM296.825 4.4H319.225V2.4H296.825V4.4ZM318.33 3.84556L361.53 90.6456L363.32 89.7544L320.12 2.95443L318.33 3.84556ZM362.425 89.2H360.825V91.2H362.425V89.2ZM361.72 90.6456L404.92 3.84556L403.13 2.95443L359.93 89.7544L361.72 90.6456ZM404.025 4.4H425.825V2.4H404.025V4.4ZM424.825 3.4V129H426.825V3.4H424.825ZM425.825 128H410.025V130H425.825V128ZM411.025 129V19.6H409.025V129H411.025ZM410.025 20.6H412.825V18.6H410.025V20.6ZM411.928 19.1589L365.928 112.759L367.722 113.641L413.722 20.0411L411.928 19.1589ZM366.825 112.2H356.425V114.2H366.825V112.2ZM357.322 112.758L311.522 19.7582L309.728 20.6418L355.528 113.642L357.322 112.758ZM310.625 21.2H312.425V19.2H310.625V21.2ZM311.425 20.2V129H313.425V20.2H311.425ZM312.425 128H296.825V130H312.425V128ZM297.825 129V3.4H295.825V129H297.825ZM481.961 129H480.961V130H481.961V129ZM481.961 3.4V2.4H480.961V3.4H481.961ZM559.361 3.4H560.361V2.4H559.361V3.4ZM559.361 16.8V17.8H560.361V16.8H559.361ZM497.561 16.8V15.8H496.561V16.8H497.561ZM497.561 59H496.561V60H497.561V59ZM555.761 59H556.761V58H555.761V59ZM555.761 72.4V73.4H556.761V72.4H555.761ZM497.561 72.4V71.4H496.561V72.4H497.561ZM497.561 115.4H496.561V116.4H497.561V115.4ZM559.361 115.4H560.361V114.4H559.361V115.4ZM559.361 129V130H560.361V129H559.361ZM482.961 129V3.4H480.961V129H482.961ZM481.961 4.4H559.361V2.4H481.961V4.4ZM558.361 3.4V16.8H560.361V3.4H558.361ZM559.361 15.8H497.561V17.8H559.361V15.8ZM496.561 16.8V59H498.561V16.8H496.561ZM497.561 60H555.761V58H497.561V60ZM554.761 59V72.4H556.761V59H554.761ZM555.761 71.4H497.561V73.4H555.761V71.4ZM496.561 72.4V115.4H498.561V72.4H496.561ZM497.561 116.4H559.361V114.4H497.561V116.4ZM558.361 115.4V129H560.361V115.4H558.361ZM559.361 128H481.961V130H559.361V128Z" fill="white"/>
</svg>
