<svg width="723" height="133" viewBox="0 0 723 133" fill="none" xmlns="http://www.w3.org/2000/svg">
<path d="M1.47188 3.4V2.4H0.105991L0.518591 3.70207L1.47188 3.4ZM19.0719 3.4L20.0319 3.12006L19.8219 2.4H19.0719V3.4ZM51.6719 115.2V116.2H53.0051L52.6319 114.92L51.6719 115.2ZM47.0719 115.2L46.1245 114.88L45.6782 116.2H47.0719V115.2ZM80.4719 16.4V15.4H79.7543L79.5245 16.0797L80.4719 16.4ZM91.0719 16.4L92.0196 16.0809L91.7903 15.4H91.0719V16.4ZM124.072 114.4V115.4H125.464L125.02 114.081L124.072 114.4ZM119.672 114.4L118.724 114.081L118.28 115.4H119.672V114.4ZM157.072 3.4V2.4H156.354L156.124 3.0807L157.072 3.4ZM174.472 3.4L175.415 3.73329L175.886 2.4H174.472V3.4ZM130.072 129V130H130.779L131.015 129.333L130.072 129ZM113.672 129L112.725 129.322L112.956 130H113.672V129ZM84.6719 43.8V42.8H83.2752L83.7252 44.1222L84.6719 43.8ZM87.6719 43.8L88.6151 44.1321L89.0842 42.8H87.6719V43.8ZM57.6719 129V130H58.3799L58.6151 129.332L57.6719 129ZM41.2719 129L40.3186 129.302L40.5398 130H41.2719V129ZM1.47188 4.4H19.0719V2.4H1.47188V4.4ZM18.1119 3.67993L50.7119 115.48L52.6319 114.92L20.0319 3.12006L18.1119 3.67993ZM51.6719 114.2H47.0719V116.2H51.6719V114.2ZM48.0192 115.52L81.4192 16.7202L79.5245 16.0797L46.1245 114.88L48.0192 115.52ZM80.4719 17.4H91.0719V15.4H80.4719V17.4ZM90.1242 16.7191L123.124 114.719L125.02 114.081L92.0196 16.0809L90.1242 16.7191ZM124.072 113.4H119.672V115.4H124.072V113.4ZM120.62 114.719L158.02 3.7193L156.124 3.0807L118.724 114.081L120.62 114.719ZM157.072 4.4H174.472V2.4H157.072V4.4ZM173.529 3.0667L129.129 128.667L131.015 129.333L175.415 3.73329L173.529 3.0667ZM130.072 128H113.672V130H130.072V128ZM114.619 128.678L85.6185 43.4778L83.7252 44.1222L112.725 129.322L114.619 128.678ZM84.6719 44.8H87.6719V42.8H84.6719V44.8ZM86.7286 43.4679L56.7286 128.668L58.6151 129.332L88.6151 44.1321L86.7286 43.4679ZM57.6719 128H41.2719V130H57.6719V128ZM42.2252 128.698L2.42516 3.09792L0.518591 3.70207L40.3186 129.302L42.2252 128.698ZM230.083 124.2L229.578 125.063L230.083 124.2ZM210.683 102.6L209.785 103.04L209.786 103.042L210.683 102.6ZM210.683 30L211.58 30.4422L211.581 30.4398L210.683 30ZM230.083 8.39999L230.583 9.26608L230.588 9.26301L230.083 8.39999ZM305.283 30.1L304.385 30.5398L304.385 30.5398L305.283 30.1ZM305.283 102.8L306.18 103.242L306.181 103.24L305.283 102.8ZM285.883 124.3L286.383 125.166L286.383 125.166L285.883 124.3ZM285.883 104.1L285.101 103.476L285.098 103.48L285.883 104.1ZM285.883 28.5L285.089 29.1086L285.094 29.1152L285.883 28.5ZM230.083 28.5L229.295 27.884L229.292 27.8877L230.083 28.5ZM230.083 104.2L229.301 104.824L229.307 104.831L230.083 104.2ZM257.983 130.4C247.743 130.4 238.62 128.039 230.588 123.337L229.578 125.063C237.945 129.961 247.423 132.4 257.983 132.4V130.4ZM230.588 123.337C222.578 118.648 216.238 111.605 211.58 102.158L209.786 103.042C214.594 112.795 221.188 120.152 229.578 125.063L230.588 123.337ZM211.581 102.16C206.934 92.6692 204.583 80.7642 204.583 66.4H202.583C202.583 80.9692 204.965 93.1975 209.785 103.04L211.581 102.16ZM204.583 66.4C204.583 51.833 206.935 39.8635 211.58 30.4422L209.786 29.5578C204.964 39.3365 202.583 51.6337 202.583 66.4H204.583ZM211.581 30.4398C216.239 20.9264 222.578 13.8869 230.583 9.26606L229.583 7.53392C221.188 12.3798 214.593 19.7403 209.785 29.5602L211.581 30.4398ZM230.588 9.26301C238.62 4.56106 247.743 2.19999 257.983 2.19999V0.199988C247.423 0.199988 237.945 2.63892 229.578 7.53698L230.588 9.26301ZM257.983 2.19999C268.223 2.19999 277.345 4.56106 285.378 9.26301L286.388 7.53698C278.02 2.63892 268.543 0.199988 257.983 0.199988V2.19999ZM285.378 9.26301C293.386 13.9508 299.726 21.0255 304.385 30.5398L306.181 29.6602C301.373 19.8411 294.78 12.4491 286.388 7.53698L285.378 9.26301ZM304.385 30.5398C309.032 40.0303 311.383 51.9684 311.383 66.4H313.383C313.383 51.765 311.001 39.5031 306.181 29.6602L304.385 30.5398ZM311.383 66.4C311.383 80.8991 309.032 92.8703 304.385 102.36L306.181 103.24C311.001 93.3964 313.383 81.1009 313.383 66.4H311.383ZM304.386 102.358C299.728 111.804 293.39 118.812 285.383 123.434L286.383 125.166C294.776 120.321 301.371 112.996 306.18 103.242L304.386 102.358ZM285.383 123.434C277.35 128.071 268.225 130.4 257.983 130.4V132.4C268.541 132.4 278.016 129.996 286.383 125.166L285.383 123.434ZM257.983 118C270.062 118 279.662 113.58 286.667 104.72L285.098 103.48C278.504 111.82 269.504 116 257.983 116V118ZM286.664 104.724C293.729 95.8759 297.183 82.9821 297.183 66.2H295.183C295.183 82.7512 291.77 95.1241 285.101 103.476L286.664 104.724ZM297.183 66.2C297.183 49.7433 293.726 36.9256 286.671 27.8848L285.094 29.1152C291.773 37.6744 295.183 49.99 295.183 66.2H297.183ZM286.676 27.8914C279.675 18.7624 270.074 14.2 257.983 14.2V16.2C269.492 16.2 278.491 20.5043 285.089 29.1086L286.676 27.8914ZM257.983 14.2C246.022 14.2 236.426 18.7648 229.295 27.884L230.871 29.116C237.606 20.5018 246.611 16.2 257.983 16.2V14.2ZM229.292 27.8877C222.24 36.9943 218.783 49.8771 218.783 66.4H220.783C220.783 50.1229 224.193 37.739 230.873 29.1123L229.292 27.8877ZM218.783 66.4C218.783 83.1166 222.237 95.9765 229.301 104.824L230.864 103.576C224.195 95.2235 220.783 82.8834 220.783 66.4H218.783ZM229.307 104.831C236.443 113.614 246.036 118 257.983 118V116C246.596 116 237.589 111.853 230.859 103.569L229.307 104.831ZM358.684 129H357.684V130H358.684V129ZM358.684 3.4V2.4H357.684V3.4H358.684ZM434.984 13.7L434.301 14.43L434.308 14.4363L434.984 13.7ZM434.984 67.4L435.664 68.1333L435.665 68.133L434.984 67.4ZM374.284 77.6V76.6H373.284V77.6H374.284ZM374.284 129V130H375.284V129H374.284ZM429.084 129L428.239 129.534L428.533 130H429.084V129ZM393.084 72V71H391.27L392.239 72.534L393.084 72ZM410.084 72L410.908 71.4333L410.61 71H410.084V72ZM449.284 129V130H451.186L450.108 128.433L449.284 129ZM374.284 66.6H373.284V67.6H374.284V66.6ZM422.684 59.7L423.371 60.4267L423.372 60.4265L422.684 59.7ZM422.984 23.5L422.293 24.2224L422.298 24.2273L422.984 23.5ZM374.284 16.8V15.8H373.284V16.8H374.284ZM359.684 129V3.4H357.684V129H359.684ZM358.684 4.4H402.484V2.4H358.684V4.4ZM402.484 4.4C416.672 4.4 427.219 7.79874 434.301 14.43L435.668 12.97C428.083 5.86792 416.963 2.4 402.484 2.4V4.4ZM434.308 14.4363C441.478 21.0254 445.084 29.713 445.084 40.6H447.084C447.084 29.2203 443.291 19.9746 435.661 12.9637L434.308 14.4363ZM445.084 40.6C445.084 51.3496 441.481 60.0076 434.304 66.667L435.665 68.133C443.288 61.059 447.084 51.8504 447.084 40.6H445.084ZM434.304 66.6667C427.223 73.2335 416.674 76.6 402.484 76.6V78.6C416.961 78.6 428.079 75.1665 435.664 68.1333L434.304 66.6667ZM402.484 76.6H374.284V78.6H402.484V76.6ZM373.284 77.6V129H375.284V77.6H373.284ZM374.284 128H358.684V130H374.284V128ZM429.93 128.466L393.93 71.466L392.239 72.534L428.239 129.534L429.93 128.466ZM393.084 73H410.084V71H393.084V73ZM409.26 72.5666L448.46 129.567L450.108 128.433L410.908 71.4333L409.26 72.5666ZM449.284 128H429.084V130H449.284V128ZM374.284 67.6H401.284V65.6H374.284V67.6ZM401.284 67.6C410.836 67.6 418.255 65.2624 423.371 60.4267L421.997 58.9733C417.38 63.3376 410.533 65.6 401.284 65.6V67.6ZM423.372 60.4265C428.524 55.5529 431.084 49.2474 431.084 41.6H429.084C429.084 48.7525 426.712 54.5138 421.997 58.9735L423.372 60.4265ZM431.084 41.6C431.084 33.775 428.638 27.4603 423.671 22.7727L422.298 24.2273C426.797 28.4731 429.084 34.225 429.084 41.6H431.084ZM423.676 22.7776C418.76 18.0727 411.64 15.8 402.484 15.8V17.8C411.329 17.8 417.875 19.9939 422.293 24.2224L423.676 22.7776ZM402.484 15.8H374.284V17.8H402.484V15.8ZM373.284 16.8V66.6H375.284V16.8H373.284ZM569.345 3.4V2.4H568.921L568.626 2.70485L569.345 3.4ZM590.945 3.4L591.663 4.0966L593.31 2.4H590.945V3.4ZM510.745 86H509.745V88.4655L511.463 86.6966L510.745 86ZM510.745 64L510.026 63.3049L509.745 63.5956V64H510.745ZM533.345 56.4L534.111 55.7567L533.441 54.9599L532.672 55.6607L533.345 56.4ZM594.345 129V130H596.492L595.111 128.357L594.345 129ZM573.945 129L573.176 129.639L573.476 130H573.945V129ZM522.145 66.6L521.472 65.8607L520.766 66.5038L521.376 67.2387L522.145 66.6ZM497.145 3.4V2.4H496.145V3.4H497.145ZM512.945 3.4H513.945V2.4H512.945V3.4ZM512.945 129V130H513.945V129H512.945ZM497.145 129H496.145V130H497.145V129ZM569.345 4.4H590.945V2.4H569.345V4.4ZM590.228 2.70339L510.028 85.3034L511.463 86.6966L591.663 4.0966L590.228 2.70339ZM511.745 86V64H509.745V86H511.745ZM511.464 64.6951L570.064 4.09514L568.626 2.70485L510.026 63.3049L511.464 64.6951ZM532.58 57.0433L593.58 129.643L595.111 128.357L534.111 55.7567L532.58 57.0433ZM594.345 128H573.945V130H594.345V128ZM574.715 128.361L522.915 65.9613L521.376 67.2387L573.176 129.639L574.715 128.361ZM522.819 67.3393L534.019 57.1393L532.672 55.6607L521.472 65.8607L522.819 67.3393ZM497.145 4.4H512.945V2.4H497.145V4.4ZM511.945 3.4V129H513.945V3.4H511.945ZM512.945 128H497.145V130H512.945V128ZM498.145 129V3.4H496.145V129H498.145ZM651.73 126.9L651.328 127.816L651.336 127.819L651.73 126.9ZM634.83 113.4L635.642 112.816L635.642 112.816L634.83 113.4ZM628.23 91.4V90.4H627.214L627.23 91.4153L628.23 91.4ZM643.43 91.4H644.43V90.4H643.43V91.4ZM647.73 105.9L646.931 106.502L646.937 106.509L647.73 105.9ZM659.13 114.3L658.763 115.23L658.774 115.235L659.13 114.3ZM690.43 114.1L690.827 115.018L690.827 115.018L690.43 114.1ZM700.73 106.5L699.938 105.889L699.936 105.892L700.73 106.5ZM699.53 83.1L698.815 83.8L698.823 83.8071L699.53 83.1ZM685.03 75L684.698 75.9435L684.71 75.9477L684.722 75.9516L685.03 75ZM662.83 67.2L662.492 68.1412L662.498 68.1435L662.83 67.2ZM639.23 54.4L639.899 53.6567L639.899 53.6567L639.23 54.4ZM642.43 10.4L641.798 9.6245L641.795 9.62726L642.43 10.4ZM704.43 10.1L703.794 10.8717L703.798 10.8752L704.43 10.1ZM716.83 33.8V34.8H717.943L717.824 33.6932L716.83 33.8ZM701.43 33.8L700.444 33.9699L700.587 34.8H701.43V33.8ZM693.23 20.3L692.634 21.1029L692.64 21.108L692.647 21.1129L693.23 20.3ZM655.13 20.9L654.506 20.118L654.506 20.118L655.13 20.9ZM652.53 45.8L651.84 46.5237L651.848 46.5319L651.857 46.5399L652.53 45.8ZM666.23 53L666.557 52.055L666.555 52.0544L666.23 53ZM692.23 62L691.903 62.945L691.913 62.9487L692.23 62ZM713.53 74.6L712.809 75.2937L712.814 75.2982L713.53 74.6ZM716.03 113.7L715.198 113.145L715.193 113.152L716.03 113.7ZM700.33 126.6L699.911 125.692L699.911 125.692L700.33 126.6ZM674.83 130.4C666.551 130.4 658.987 128.922 652.124 125.981L651.336 127.819C658.473 130.878 666.308 132.4 674.83 132.4V130.4ZM652.131 125.984C645.287 122.986 639.799 118.597 635.642 112.816L634.018 113.984C638.394 120.069 644.172 124.681 651.328 127.816L652.131 125.984ZM635.642 112.816C631.516 107.079 629.36 99.9545 629.23 91.3847L627.23 91.4153C627.366 100.312 629.61 107.854 634.018 113.984L635.642 112.816ZM628.23 92.4H643.43V90.4H628.23V92.4ZM642.43 91.4C642.43 97.4324 643.906 102.492 646.931 106.502L648.528 105.298C645.82 101.708 644.43 97.1009 644.43 91.4H642.43ZM646.937 106.509C649.922 110.398 653.875 113.303 658.763 115.23L659.497 113.37C654.918 111.564 651.27 108.869 648.523 105.291L646.937 106.509ZM658.774 115.235C663.633 117.082 668.921 118 674.63 118V116C669.138 116 664.094 115.118 659.485 113.365L658.774 115.235ZM674.63 118C680.8 118 686.208 117.017 690.827 115.018L690.032 113.182C685.718 115.05 680.592 116 674.63 116V118ZM690.827 115.018C695.414 113.032 698.998 110.405 701.524 107.108L699.936 105.892C697.661 108.862 694.379 111.301 690.032 113.182L690.827 115.018ZM701.522 107.111C704.114 103.747 705.43 100.035 705.43 96H703.43C703.43 99.5646 702.279 102.853 699.938 105.889L701.522 107.111ZM705.43 96C705.43 90.4458 703.72 85.8763 700.237 82.3929L698.823 83.8071C701.873 86.857 703.43 90.8875 703.43 96H705.43ZM700.244 82.4001C696.825 78.9115 691.828 76.1443 685.337 74.0484L684.722 75.9516C691.032 77.989 695.701 80.6219 698.815 83.7999L700.244 82.4001ZM685.361 74.0565L663.161 66.2565L662.498 68.1435L684.698 75.9435L685.361 74.0565ZM663.168 66.2588C652.831 62.5481 645.098 58.336 639.899 53.6567L638.561 55.1433C644.028 60.064 652.029 64.3852 662.492 68.1412L663.168 66.2588ZM639.899 53.6567C634.819 49.0853 632.23 42.6472 632.23 34.2H630.23C630.23 43.0861 632.973 50.1147 638.561 55.1433L639.899 53.6567ZM632.23 34.2C632.23 24.7634 635.831 17.1145 643.064 11.1727L641.795 9.62726C634.095 15.9522 630.23 24.1699 630.23 34.2H632.23ZM643.061 11.1755C650.354 5.23768 660.765 2.19999 674.43 2.19999V0.199988C660.495 0.199988 649.572 3.29563 641.798 9.62451L643.061 11.1755ZM674.43 2.19999C687.083 2.19999 696.829 5.13262 703.794 10.8717L705.066 9.32828C697.63 3.2007 687.376 0.199988 674.43 0.199988V2.19999ZM703.798 10.8752C710.777 16.5621 714.795 24.2134 715.835 33.9068L717.824 33.6932C716.732 23.5199 712.482 15.3712 705.061 9.32476L703.798 10.8752ZM716.83 32.8H701.43V34.8H716.83V32.8ZM702.415 33.6301C701.374 27.5915 698.509 22.8518 693.812 19.4871L692.647 21.1129C696.884 24.1482 699.485 28.4085 700.444 33.9699L702.415 33.6301ZM693.826 19.4971C689.188 16.0538 682.679 14.4 674.43 14.4V16.4C682.447 16.4 688.471 18.0128 692.634 21.1029L693.826 19.4971ZM674.43 14.4C666.027 14.4 659.343 16.2628 654.506 20.118L655.753 21.682C660.116 18.2039 666.299 16.4 674.43 16.4V14.4ZM654.506 20.118C649.682 23.9634 647.23 28.8783 647.23 34.8H649.23C649.23 29.5217 651.377 25.17 655.753 21.682L654.506 20.118ZM647.23 34.8C647.23 39.6254 648.743 43.5709 651.84 46.5237L653.22 45.0763C650.583 42.5624 649.23 39.1746 649.23 34.8H647.23ZM651.857 46.5399C654.936 49.3388 659.649 51.7932 665.904 53.9456L666.555 52.0544C660.41 49.9401 655.99 47.5946 653.202 45.0601L651.857 46.5399ZM665.903 53.945L691.903 62.945L692.557 61.055L666.557 52.055L665.903 53.945ZM691.913 62.9487C700.8 65.9108 707.747 70.0369 712.809 75.2936L714.25 73.9064C708.912 68.3631 701.66 64.0892 692.546 61.0513L691.913 62.9487ZM712.814 75.2982C717.872 80.4849 720.43 87.2213 720.43 95.6H722.43C722.43 86.7787 719.72 79.5151 714.246 73.9018L712.814 75.2982ZM720.43 95.6C720.43 102.075 718.685 107.914 715.198 113.145L716.862 114.255C720.574 108.686 722.43 102.458 722.43 95.6H720.43ZM715.193 113.152C711.78 118.369 706.705 122.556 699.911 125.692L700.749 127.508C707.821 124.244 713.213 119.831 716.866 114.248L715.193 113.152ZM699.911 125.692C693.143 128.815 684.796 130.4 674.83 130.4V132.4C684.997 132.4 693.649 130.785 700.749 127.508L699.911 125.692Z" fill="white"/>
</svg>
